<?xml version="1.0" encoding="utf-8"?>
<!-- Generator: Adobe Illustrator 18.1.1, SVG Export Plug-In . SVG Version: 6.00 Build 0)  -->
<!DOCTYPE svg PUBLIC "-//W3C//DTD SVG 1.1//EN" "http://www.w3.org/Graphics/SVG/1.1/DTD/svg11.dtd">
<svg version="1.1" id="_x32_" xmlns="http://www.w3.org/2000/svg" xmlns:xlink="http://www.w3.org/1999/xlink" x="0px" y="0px"
	 viewBox="0 0 512 512" style="enable-background:new 0 0 512 512;" xml:space="preserve">
<style type="text/css">
	.st0{fill:#4B4B4B;}
</style>
<g>
	<path class="st0" d="M512,255.996l-63.305-51.631l29.002-76.362l-80.633-13.07L383.993,34.3l-76.361,29.002L256,0.004
		l-51.646,63.298L128.008,34.3l-13.07,80.634l-80.633,13.07l28.988,76.362L0,255.996l63.292,51.632l-28.988,76.368l80.633,13.07
		l13.07,80.633l76.347-29.002L256,511.996l51.632-63.299l76.361,29.002l13.07-80.633l80.633-13.07l-29.002-76.368L512,255.996z
		 M212.829,313.648l-14.382,2.834c-0.973,0.183-1.649-0.056-2.298-0.811l-39.266-45.872l-0.606,0.12l10.151,51.596
		c0.142,0.726-0.253,1.304-0.972,1.452l-13.662,2.686c-0.719,0.141-1.297-0.254-1.438-0.98l-15.678-79.746
		c-0.155-0.734,0.24-1.304,0.959-1.445l14.508-2.855c0.846-0.169,1.635,0.056,2.284,0.811l39.181,46.013l0.592-0.12l-10.166-51.716
		c-0.14-0.733,0.254-1.304,0.973-1.452l13.662-2.686c0.719-0.141,1.297,0.24,1.438,0.973l15.678,79.745
		C213.942,312.929,213.548,313.507,212.829,313.648z M283.663,299.718l-52.689,10.364c-0.733,0.14-1.296-0.247-1.452-0.973
		l-15.678-79.745c-0.141-0.734,0.24-1.312,0.973-1.452l52.688-10.364c0.719-0.14,1.298,0.247,1.438,0.98l2.538,12.922
		c0.155,0.726-0.24,1.305-0.959,1.445l-35.418,6.966c-0.479,0.092-0.676,0.38-0.578,0.867l3.201,16.312
		c0.099,0.48,0.395,0.677,0.874,0.586l29.495-5.802c0.719-0.141,1.297,0.253,1.438,0.972l2.524,12.81
		c0.141,0.726-0.254,1.297-0.972,1.438l-29.496,5.802c-0.479,0.099-0.676,0.388-0.577,0.867l3.355,17.039
		c0.084,0.486,0.38,0.676,0.86,0.578l35.417-6.965c0.719-0.141,1.298,0.254,1.438,0.98l2.538,12.93
		C284.777,298.999,284.382,299.577,283.663,299.718z M371.896,281.107c0.014,0.754-0.493,1.361-1.339,1.523l-12.083,2.376
		c-0.846,0.169-1.424-0.226-1.805-0.902L332.362,235.8l-0.24,0.049l-4.328,53.937c-0.099,0.768-0.494,1.354-1.34,1.515
		l-12.083,2.383c-0.719,0.141-1.297-0.254-1.692-0.931l-36.94-75.565c-0.268-0.705-0.127-1.234,0.719-1.403l15.594-3.059
		c0.846-0.17,1.423,0.212,1.678,0.923l21.995,49.263l0.24-0.049l3.877-54.346c0.099-0.782,0.493-1.353,1.326-1.523l10.518-2.066
		c0.719-0.141,1.297,0.24,1.692,0.931l24.631,48.734l0.254-0.05l1.212-53.816c-0.042-0.874,0.367-1.34,1.213-1.502l15.467-3.038
		c0.846-0.17,1.17,0.261,1.198,1.015L371.896,281.107z"/>
</g>
</svg>
